<mxfile modified="2024-02-07T23:43:35.268Z" host="app.diagrams.net" agent="Mozilla/5.0 (Windows NT 10.0; Win64; x64) AppleWebKit/537.36 (KHTML, like Gecko) Chrome/121.0.0.0 Safari/537.36" etag="XT3iPKx52R5BmCEdROUU" version="23.1.1" type="github">
  <diagram id="WI9T0HZ2pTsCkuznbFz-" name="Page-1">
    <mxGraphModel dx="1430" dy="786" grid="1" gridSize="10" guides="1" tooltips="1" connect="1" arrows="1" fold="1" page="1" pageScale="1" pageWidth="827" pageHeight="1169" math="0" shadow="0">
      <root>
        <mxCell id="0" />
        <mxCell id="1" parent="0" />
        <mxCell id="LbgYifDKzVZNk5WE-PiP-6" value="" style="group;movable=0;resizable=0;rotatable=0;deletable=0;editable=0;locked=1;connectable=0;" vertex="1" connectable="0" parent="1">
          <mxGeometry x="60" y="80" width="1080" height="1430" as="geometry" />
        </mxCell>
        <mxCell id="LbgYifDKzVZNk5WE-PiP-1" value="" style="rounded=0;whiteSpace=wrap;html=1;movable=0;resizable=0;rotatable=0;deletable=0;editable=0;locked=1;connectable=0;" vertex="1" parent="LbgYifDKzVZNk5WE-PiP-6">
          <mxGeometry width="420" height="690" as="geometry" />
        </mxCell>
        <mxCell id="LbgYifDKzVZNk5WE-PiP-2" value="" style="rounded=0;whiteSpace=wrap;html=1;movable=0;resizable=0;rotatable=0;deletable=0;editable=0;locked=1;connectable=0;" vertex="1" parent="LbgYifDKzVZNk5WE-PiP-6">
          <mxGeometry x="660" width="420" height="690" as="geometry" />
        </mxCell>
        <mxCell id="LbgYifDKzVZNk5WE-PiP-3" value="" style="rounded=0;whiteSpace=wrap;html=1;movable=0;resizable=0;rotatable=0;deletable=0;editable=0;locked=1;connectable=0;" vertex="1" parent="LbgYifDKzVZNk5WE-PiP-6">
          <mxGeometry y="740" width="420" height="690" as="geometry" />
        </mxCell>
        <mxCell id="LbgYifDKzVZNk5WE-PiP-4" value="" style="rounded=0;whiteSpace=wrap;html=1;movable=0;resizable=0;rotatable=0;deletable=0;editable=0;locked=1;connectable=0;" vertex="1" parent="LbgYifDKzVZNk5WE-PiP-6">
          <mxGeometry x="660" y="740" width="420" height="690" as="geometry" />
        </mxCell>
        <mxCell id="LbgYifDKzVZNk5WE-PiP-19" value="" style="rounded=0;whiteSpace=wrap;html=1;" vertex="1" parent="1">
          <mxGeometry x="827" y="165" width="270" height="120" as="geometry" />
        </mxCell>
        <mxCell id="LbgYifDKzVZNk5WE-PiP-20" value="" style="rounded=0;whiteSpace=wrap;html=1;" vertex="1" parent="1">
          <mxGeometry x="827" y="365" width="270" height="120" as="geometry" />
        </mxCell>
        <mxCell id="LbgYifDKzVZNk5WE-PiP-21" value="" style="rounded=0;whiteSpace=wrap;html=1;" vertex="1" parent="1">
          <mxGeometry x="827" y="575" width="270" height="120" as="geometry" />
        </mxCell>
        <mxCell id="LbgYifDKzVZNk5WE-PiP-27" value="" style="rounded=0;whiteSpace=wrap;html=1;" vertex="1" parent="1">
          <mxGeometry x="827" y="165" width="270" height="120" as="geometry" />
        </mxCell>
        <mxCell id="LbgYifDKzVZNk5WE-PiP-28" value="Availability Set" style="text;html=1;strokeColor=none;fillColor=default;align=center;verticalAlign=middle;whiteSpace=wrap;rounded=0;" vertex="1" parent="1">
          <mxGeometry x="908" y="269" width="80" height="30" as="geometry" />
        </mxCell>
        <mxCell id="LbgYifDKzVZNk5WE-PiP-29" value="" style="rounded=0;whiteSpace=wrap;html=1;" vertex="1" parent="1">
          <mxGeometry x="827" y="365" width="270" height="120" as="geometry" />
        </mxCell>
        <mxCell id="LbgYifDKzVZNk5WE-PiP-30" value="Availability Set" style="text;html=1;strokeColor=none;fillColor=default;align=center;verticalAlign=middle;whiteSpace=wrap;rounded=0;" vertex="1" parent="1">
          <mxGeometry x="908" y="469" width="80" height="30" as="geometry" />
        </mxCell>
        <mxCell id="LbgYifDKzVZNk5WE-PiP-31" value="" style="rounded=0;whiteSpace=wrap;html=1;" vertex="1" parent="1">
          <mxGeometry x="827" y="575" width="270" height="120" as="geometry" />
        </mxCell>
        <mxCell id="LbgYifDKzVZNk5WE-PiP-32" value="Availability Set" style="text;html=1;strokeColor=none;fillColor=default;align=center;verticalAlign=middle;whiteSpace=wrap;rounded=0;" vertex="1" parent="1">
          <mxGeometry x="908" y="679" width="80" height="30" as="geometry" />
        </mxCell>
        <mxCell id="LbgYifDKzVZNk5WE-PiP-34" value="Region 1&lt;br&gt;High availability" style="text;html=1;strokeColor=none;fillColor=default;align=center;verticalAlign=middle;whiteSpace=wrap;rounded=0;" vertex="1" parent="1">
          <mxGeometry x="190" y="60" width="91" height="30" as="geometry" />
        </mxCell>
        <mxCell id="LbgYifDKzVZNk5WE-PiP-35" value="Region 2&lt;br&gt;Disaster Recovery site" style="text;html=1;strokeColor=none;fillColor=default;align=center;verticalAlign=middle;whiteSpace=wrap;rounded=0;" vertex="1" parent="1">
          <mxGeometry x="890" y="60" width="132" height="30" as="geometry" />
        </mxCell>
        <mxCell id="LbgYifDKzVZNk5WE-PiP-36" value="Public IP" style="text;html=1;strokeColor=none;fillColor=#F0F0F0;align=center;verticalAlign=middle;whiteSpace=wrap;rounded=0;" vertex="1" parent="1">
          <mxGeometry x="139.75" y="95" width="178.5" height="30" as="geometry" />
        </mxCell>
        <mxCell id="LbgYifDKzVZNk5WE-PiP-37" value="Public IP" style="text;html=1;strokeColor=none;fillColor=#F0F0F0;align=center;verticalAlign=middle;whiteSpace=wrap;rounded=0;" vertex="1" parent="1">
          <mxGeometry x="872.75" y="100" width="178.5" height="30" as="geometry" />
        </mxCell>
        <mxCell id="LbgYifDKzVZNk5WE-PiP-53" value="" style="image;sketch=0;aspect=fixed;html=1;points=[];align=center;fontSize=12;image=img/lib/mscae/Load_Balancer_feature.svg;" vertex="1" parent="1">
          <mxGeometry x="220.5" y="530" width="30" height="30" as="geometry" />
        </mxCell>
        <mxCell id="LbgYifDKzVZNk5WE-PiP-54" value="" style="group" vertex="1" connectable="0" parent="1">
          <mxGeometry x="110" y="170" width="270" height="134" as="geometry" />
        </mxCell>
        <mxCell id="LbgYifDKzVZNk5WE-PiP-7" value="" style="rounded=0;whiteSpace=wrap;html=1;" vertex="1" parent="LbgYifDKzVZNk5WE-PiP-54">
          <mxGeometry width="270" height="120" as="geometry" />
        </mxCell>
        <mxCell id="LbgYifDKzVZNk5WE-PiP-22" value="Availability Set" style="text;html=1;strokeColor=none;fillColor=default;align=center;verticalAlign=middle;whiteSpace=wrap;rounded=0;" vertex="1" parent="LbgYifDKzVZNk5WE-PiP-54">
          <mxGeometry x="81" y="104" width="80" height="30" as="geometry" />
        </mxCell>
        <mxCell id="LbgYifDKzVZNk5WE-PiP-41" value="" style="group" vertex="1" connectable="0" parent="LbgYifDKzVZNk5WE-PiP-54">
          <mxGeometry x="12" y="8" width="69" height="94" as="geometry" />
        </mxCell>
        <mxCell id="LbgYifDKzVZNk5WE-PiP-39" value="" style="image;aspect=fixed;html=1;points=[];align=center;fontSize=12;image=img/lib/azure2/compute/Virtual_Machine.svg;" vertex="1" parent="LbgYifDKzVZNk5WE-PiP-41">
          <mxGeometry width="69" height="64" as="geometry" />
        </mxCell>
        <mxCell id="LbgYifDKzVZNk5WE-PiP-40" value="WEB 1" style="text;html=1;strokeColor=none;fillColor=none;align=center;verticalAlign=middle;whiteSpace=wrap;rounded=0;" vertex="1" parent="LbgYifDKzVZNk5WE-PiP-41">
          <mxGeometry x="4.5" y="64" width="60" height="30" as="geometry" />
        </mxCell>
        <mxCell id="LbgYifDKzVZNk5WE-PiP-42" value="" style="group" vertex="1" connectable="0" parent="LbgYifDKzVZNk5WE-PiP-54">
          <mxGeometry x="180" y="10" width="69" height="94" as="geometry" />
        </mxCell>
        <mxCell id="LbgYifDKzVZNk5WE-PiP-43" value="" style="image;aspect=fixed;html=1;points=[];align=center;fontSize=12;image=img/lib/azure2/compute/Virtual_Machine.svg;" vertex="1" parent="LbgYifDKzVZNk5WE-PiP-42">
          <mxGeometry width="69" height="64" as="geometry" />
        </mxCell>
        <mxCell id="LbgYifDKzVZNk5WE-PiP-44" value="WEB 2" style="text;html=1;strokeColor=none;fillColor=none;align=center;verticalAlign=middle;whiteSpace=wrap;rounded=0;" vertex="1" parent="LbgYifDKzVZNk5WE-PiP-42">
          <mxGeometry x="4.5" y="64" width="60" height="30" as="geometry" />
        </mxCell>
        <mxCell id="LbgYifDKzVZNk5WE-PiP-55" value="" style="group" vertex="1" connectable="0" parent="1">
          <mxGeometry x="110" y="370" width="270" height="134" as="geometry" />
        </mxCell>
        <mxCell id="LbgYifDKzVZNk5WE-PiP-23" value="" style="rounded=0;whiteSpace=wrap;html=1;" vertex="1" parent="LbgYifDKzVZNk5WE-PiP-55">
          <mxGeometry width="270" height="120" as="geometry" />
        </mxCell>
        <mxCell id="LbgYifDKzVZNk5WE-PiP-24" value="Availability Set" style="text;html=1;strokeColor=none;fillColor=default;align=center;verticalAlign=middle;whiteSpace=wrap;rounded=0;" vertex="1" parent="LbgYifDKzVZNk5WE-PiP-55">
          <mxGeometry x="81" y="104" width="80" height="30" as="geometry" />
        </mxCell>
        <mxCell id="LbgYifDKzVZNk5WE-PiP-45" value="" style="group" vertex="1" connectable="0" parent="LbgYifDKzVZNk5WE-PiP-55">
          <mxGeometry x="10" y="10" width="69" height="94" as="geometry" />
        </mxCell>
        <mxCell id="LbgYifDKzVZNk5WE-PiP-46" value="" style="image;aspect=fixed;html=1;points=[];align=center;fontSize=12;image=img/lib/azure2/compute/Virtual_Machine.svg;" vertex="1" parent="LbgYifDKzVZNk5WE-PiP-45">
          <mxGeometry width="69" height="64" as="geometry" />
        </mxCell>
        <mxCell id="LbgYifDKzVZNk5WE-PiP-47" value="APP 1" style="text;html=1;strokeColor=none;fillColor=none;align=center;verticalAlign=middle;whiteSpace=wrap;rounded=0;" vertex="1" parent="LbgYifDKzVZNk5WE-PiP-45">
          <mxGeometry x="4.5" y="64" width="60" height="30" as="geometry" />
        </mxCell>
        <mxCell id="LbgYifDKzVZNk5WE-PiP-48" value="" style="group" vertex="1" connectable="0" parent="LbgYifDKzVZNk5WE-PiP-55">
          <mxGeometry x="180" y="10" width="69" height="94" as="geometry" />
        </mxCell>
        <mxCell id="LbgYifDKzVZNk5WE-PiP-49" value="" style="image;aspect=fixed;html=1;points=[];align=center;fontSize=12;image=img/lib/azure2/compute/Virtual_Machine.svg;" vertex="1" parent="LbgYifDKzVZNk5WE-PiP-48">
          <mxGeometry width="69" height="64" as="geometry" />
        </mxCell>
        <mxCell id="LbgYifDKzVZNk5WE-PiP-50" value="APP 2" style="text;html=1;strokeColor=none;fillColor=none;align=center;verticalAlign=middle;whiteSpace=wrap;rounded=0;" vertex="1" parent="LbgYifDKzVZNk5WE-PiP-48">
          <mxGeometry x="4.5" y="64" width="60" height="30" as="geometry" />
        </mxCell>
        <mxCell id="LbgYifDKzVZNk5WE-PiP-56" value="" style="group" vertex="1" connectable="0" parent="1">
          <mxGeometry x="110" y="580" width="270" height="134" as="geometry" />
        </mxCell>
        <mxCell id="LbgYifDKzVZNk5WE-PiP-25" value="" style="rounded=0;whiteSpace=wrap;html=1;" vertex="1" parent="LbgYifDKzVZNk5WE-PiP-56">
          <mxGeometry width="270" height="120" as="geometry" />
        </mxCell>
        <mxCell id="LbgYifDKzVZNk5WE-PiP-26" value="Availability Set" style="text;html=1;strokeColor=none;fillColor=default;align=center;verticalAlign=middle;whiteSpace=wrap;rounded=0;" vertex="1" parent="LbgYifDKzVZNk5WE-PiP-56">
          <mxGeometry x="81" y="104" width="80" height="30" as="geometry" />
        </mxCell>
        <mxCell id="LbgYifDKzVZNk5WE-PiP-85" value="" style="image;aspect=fixed;perimeter=ellipsePerimeter;html=1;align=center;shadow=0;dashed=0;spacingTop=3;image=img/lib/active_directory/database_server.svg;" vertex="1" parent="LbgYifDKzVZNk5WE-PiP-56">
          <mxGeometry x="20" y="20" width="57.4" height="70" as="geometry" />
        </mxCell>
        <mxCell id="LbgYifDKzVZNk5WE-PiP-86" value="" style="image;aspect=fixed;perimeter=ellipsePerimeter;html=1;align=center;shadow=0;dashed=0;spacingTop=3;image=img/lib/active_directory/database_server.svg;" vertex="1" parent="LbgYifDKzVZNk5WE-PiP-56">
          <mxGeometry x="190" y="20" width="57.4" height="70" as="geometry" />
        </mxCell>
        <mxCell id="LbgYifDKzVZNk5WE-PiP-87" value="DB1" style="text;html=1;strokeColor=none;fillColor=none;align=center;verticalAlign=middle;whiteSpace=wrap;rounded=0;" vertex="1" parent="LbgYifDKzVZNk5WE-PiP-56">
          <mxGeometry x="10" y="80" width="60" height="30" as="geometry" />
        </mxCell>
        <mxCell id="LbgYifDKzVZNk5WE-PiP-88" value="&lt;span style=&quot;color: rgb(0, 0, 0); font-family: Helvetica; font-size: 12px; font-style: normal; font-variant-ligatures: normal; font-variant-caps: normal; font-weight: 400; letter-spacing: normal; orphans: 2; text-align: center; text-indent: 0px; text-transform: none; widows: 2; word-spacing: 0px; -webkit-text-stroke-width: 0px; background-color: rgb(251, 251, 251); text-decoration-thickness: initial; text-decoration-style: initial; text-decoration-color: initial; float: none; display: inline !important;&quot;&gt;DB2&lt;/span&gt;" style="text;whiteSpace=wrap;html=1;" vertex="1" parent="LbgYifDKzVZNk5WE-PiP-56">
          <mxGeometry x="200" y="80" width="60" height="40" as="geometry" />
        </mxCell>
        <mxCell id="LbgYifDKzVZNk5WE-PiP-58" value="Region 1&lt;br&gt;High availability" style="text;html=1;strokeColor=none;fillColor=default;align=center;verticalAlign=middle;whiteSpace=wrap;rounded=0;" vertex="1" parent="1">
          <mxGeometry x="210" y="810" width="91" height="30" as="geometry" />
        </mxCell>
        <mxCell id="LbgYifDKzVZNk5WE-PiP-59" value="Public IP" style="text;html=1;strokeColor=none;fillColor=#F0F0F0;align=center;verticalAlign=middle;whiteSpace=wrap;rounded=0;" vertex="1" parent="1">
          <mxGeometry x="159.75" y="845" width="178.5" height="30" as="geometry" />
        </mxCell>
        <mxCell id="LbgYifDKzVZNk5WE-PiP-60" value="" style="image;sketch=0;aspect=fixed;html=1;points=[];align=center;fontSize=12;image=img/lib/mscae/Load_Balancer_feature.svg;" vertex="1" parent="1">
          <mxGeometry x="230" y="885" width="30" height="30" as="geometry" />
        </mxCell>
        <mxCell id="LbgYifDKzVZNk5WE-PiP-61" value="" style="image;sketch=0;aspect=fixed;html=1;points=[];align=center;fontSize=12;image=img/lib/mscae/Load_Balancer_feature.svg;" vertex="1" parent="1">
          <mxGeometry x="230" y="1070" width="30" height="30" as="geometry" />
        </mxCell>
        <mxCell id="LbgYifDKzVZNk5WE-PiP-62" value="" style="image;sketch=0;aspect=fixed;html=1;points=[];align=center;fontSize=12;image=img/lib/mscae/Load_Balancer_feature.svg;" vertex="1" parent="1">
          <mxGeometry x="230" y="1280" width="30" height="30" as="geometry" />
        </mxCell>
        <mxCell id="LbgYifDKzVZNk5WE-PiP-65" value="Availability Set" style="text;html=1;strokeColor=none;fillColor=default;align=center;verticalAlign=middle;whiteSpace=wrap;rounded=0;" vertex="1" parent="1">
          <mxGeometry x="211" y="1024" width="80" height="30" as="geometry" />
        </mxCell>
        <mxCell id="LbgYifDKzVZNk5WE-PiP-66" value="" style="group" vertex="1" connectable="0" parent="1">
          <mxGeometry x="142" y="928" width="69" height="94" as="geometry" />
        </mxCell>
        <mxCell id="LbgYifDKzVZNk5WE-PiP-67" value="" style="image;aspect=fixed;html=1;points=[];align=center;fontSize=12;image=img/lib/azure2/compute/Virtual_Machine.svg;" vertex="1" parent="LbgYifDKzVZNk5WE-PiP-66">
          <mxGeometry width="69" height="64" as="geometry" />
        </mxCell>
        <mxCell id="LbgYifDKzVZNk5WE-PiP-68" value="WEB 1" style="text;html=1;strokeColor=none;fillColor=none;align=center;verticalAlign=middle;whiteSpace=wrap;rounded=0;" vertex="1" parent="LbgYifDKzVZNk5WE-PiP-66">
          <mxGeometry x="4.5" y="64" width="60" height="30" as="geometry" />
        </mxCell>
        <mxCell id="LbgYifDKzVZNk5WE-PiP-69" value="" style="group" vertex="1" connectable="0" parent="1">
          <mxGeometry x="310" y="930" width="69" height="94" as="geometry" />
        </mxCell>
        <mxCell id="LbgYifDKzVZNk5WE-PiP-70" value="" style="image;aspect=fixed;html=1;points=[];align=center;fontSize=12;image=img/lib/azure2/compute/Virtual_Machine.svg;" vertex="1" parent="LbgYifDKzVZNk5WE-PiP-69">
          <mxGeometry width="69" height="64" as="geometry" />
        </mxCell>
        <mxCell id="LbgYifDKzVZNk5WE-PiP-71" value="WEB 2" style="text;html=1;strokeColor=none;fillColor=none;align=center;verticalAlign=middle;whiteSpace=wrap;rounded=0;" vertex="1" parent="LbgYifDKzVZNk5WE-PiP-69">
          <mxGeometry x="4.5" y="64" width="60" height="30" as="geometry" />
        </mxCell>
        <mxCell id="LbgYifDKzVZNk5WE-PiP-74" value="Availability Set" style="text;html=1;strokeColor=none;fillColor=default;align=center;verticalAlign=middle;whiteSpace=wrap;rounded=0;" vertex="1" parent="1">
          <mxGeometry x="211" y="1224" width="80" height="30" as="geometry" />
        </mxCell>
        <mxCell id="LbgYifDKzVZNk5WE-PiP-75" value="" style="group" vertex="1" connectable="0" parent="1">
          <mxGeometry x="140" y="1130" width="69" height="94" as="geometry" />
        </mxCell>
        <mxCell id="LbgYifDKzVZNk5WE-PiP-76" value="" style="image;aspect=fixed;html=1;points=[];align=center;fontSize=12;image=img/lib/azure2/compute/Virtual_Machine.svg;" vertex="1" parent="LbgYifDKzVZNk5WE-PiP-75">
          <mxGeometry width="69" height="64" as="geometry" />
        </mxCell>
        <mxCell id="LbgYifDKzVZNk5WE-PiP-77" value="APP 1" style="text;html=1;strokeColor=none;fillColor=none;align=center;verticalAlign=middle;whiteSpace=wrap;rounded=0;" vertex="1" parent="LbgYifDKzVZNk5WE-PiP-75">
          <mxGeometry x="4.5" y="64" width="60" height="30" as="geometry" />
        </mxCell>
        <mxCell id="LbgYifDKzVZNk5WE-PiP-78" value="" style="group" vertex="1" connectable="0" parent="1">
          <mxGeometry x="310" y="1130" width="69" height="94" as="geometry" />
        </mxCell>
        <mxCell id="LbgYifDKzVZNk5WE-PiP-79" value="" style="image;aspect=fixed;html=1;points=[];align=center;fontSize=12;image=img/lib/azure2/compute/Virtual_Machine.svg;" vertex="1" parent="LbgYifDKzVZNk5WE-PiP-78">
          <mxGeometry width="69" height="64" as="geometry" />
        </mxCell>
        <mxCell id="LbgYifDKzVZNk5WE-PiP-80" value="APP 2" style="text;html=1;strokeColor=none;fillColor=none;align=center;verticalAlign=middle;whiteSpace=wrap;rounded=0;" vertex="1" parent="LbgYifDKzVZNk5WE-PiP-78">
          <mxGeometry x="4.5" y="64" width="60" height="30" as="geometry" />
        </mxCell>
        <mxCell id="LbgYifDKzVZNk5WE-PiP-82" value="" style="rounded=0;whiteSpace=wrap;html=1;" vertex="1" parent="1">
          <mxGeometry x="130" y="1330" width="270" height="120" as="geometry" />
        </mxCell>
        <mxCell id="LbgYifDKzVZNk5WE-PiP-83" value="Availability Set" style="text;html=1;strokeColor=none;fillColor=default;align=center;verticalAlign=middle;whiteSpace=wrap;rounded=0;" vertex="1" parent="1">
          <mxGeometry x="211" y="1434" width="80" height="30" as="geometry" />
        </mxCell>
        <mxCell id="LbgYifDKzVZNk5WE-PiP-89" value="Load Balancer" style="text;html=1;strokeColor=none;fillColor=none;align=center;verticalAlign=middle;whiteSpace=wrap;rounded=0;" vertex="1" parent="1">
          <mxGeometry x="195.5" y="150" width="80" height="30" as="geometry" />
        </mxCell>
        <mxCell id="LbgYifDKzVZNk5WE-PiP-91" value="Internal Load Balancer" style="text;html=1;strokeColor=none;fillColor=none;align=center;verticalAlign=middle;whiteSpace=wrap;rounded=0;" vertex="1" parent="1">
          <mxGeometry x="171" y="555" width="130" height="30" as="geometry" />
        </mxCell>
        <mxCell id="LbgYifDKzVZNk5WE-PiP-92" value="Internal Load Balancer" style="text;html=1;strokeColor=none;fillColor=none;align=center;verticalAlign=middle;whiteSpace=wrap;rounded=0;" vertex="1" parent="1">
          <mxGeometry x="171" y="340" width="130" height="30" as="geometry" />
        </mxCell>
        <mxCell id="LbgYifDKzVZNk5WE-PiP-94" value="99.95% SLA" style="text;html=1;strokeColor=none;fillColor=default;align=center;verticalAlign=middle;whiteSpace=wrap;rounded=0;direction=west;flipV=0;rotation=-90;" vertex="1" parent="1">
          <mxGeometry x="20" y="430" width="80" height="30" as="geometry" />
        </mxCell>
        <mxCell id="LbgYifDKzVZNk5WE-PiP-95" value="" style="endArrow=none;html=1;rounded=0;" edge="1" parent="1">
          <mxGeometry width="50" height="50" relative="1" as="geometry">
            <mxPoint x="40" y="770" as="sourcePoint" />
            <mxPoint x="50" y="80" as="targetPoint" />
          </mxGeometry>
        </mxCell>
        <mxCell id="LbgYifDKzVZNk5WE-PiP-96" value="Availability Sets" style="text;html=1;strokeColor=none;fillColor=default;align=center;verticalAlign=middle;whiteSpace=wrap;rounded=0;direction=west;flipV=0;rotation=-90;" vertex="1" parent="1">
          <mxGeometry x="-13" y="390" width="102" height="30" as="geometry" />
        </mxCell>
        <mxCell id="LbgYifDKzVZNk5WE-PiP-97" value="" style="endArrow=classic;html=1;rounded=0;edgeStyle=orthogonalEdgeStyle;strokeWidth=1;" edge="1" parent="1" source="LbgYifDKzVZNk5WE-PiP-51">
          <mxGeometry width="50" height="50" relative="1" as="geometry">
            <mxPoint x="550" y="180" as="sourcePoint" />
            <mxPoint x="322" y="170" as="targetPoint" />
          </mxGeometry>
        </mxCell>
        <mxCell id="LbgYifDKzVZNk5WE-PiP-98" value="" style="endArrow=classic;html=1;rounded=0;edgeStyle=orthogonalEdgeStyle;strokeWidth=1;" edge="1" parent="1" source="LbgYifDKzVZNk5WE-PiP-51">
          <mxGeometry width="50" height="50" relative="1" as="geometry">
            <mxPoint x="261" y="155" as="sourcePoint" />
            <mxPoint x="157" y="170" as="targetPoint" />
          </mxGeometry>
        </mxCell>
        <mxCell id="LbgYifDKzVZNk5WE-PiP-99" value="" style="endArrow=none;html=1;rounded=0;exitX=0.537;exitY=1;exitDx=0;exitDy=0;exitPerimeter=0;entryX=0.502;entryY=0.062;entryDx=0;entryDy=0;entryPerimeter=0;" edge="1" parent="1" source="LbgYifDKzVZNk5WE-PiP-36" target="LbgYifDKzVZNk5WE-PiP-51">
          <mxGeometry width="50" height="50" relative="1" as="geometry">
            <mxPoint x="550" y="180" as="sourcePoint" />
            <mxPoint x="600" y="130" as="targetPoint" />
          </mxGeometry>
        </mxCell>
        <mxCell id="LbgYifDKzVZNk5WE-PiP-100" value="" style="endArrow=none;html=1;rounded=0;exitX=0.55;exitY=0.957;exitDx=0;exitDy=0;exitPerimeter=0;" edge="1" parent="1" source="LbgYifDKzVZNk5WE-PiP-22" target="LbgYifDKzVZNk5WE-PiP-52">
          <mxGeometry width="50" height="50" relative="1" as="geometry">
            <mxPoint x="550" y="180" as="sourcePoint" />
            <mxPoint x="600" y="130" as="targetPoint" />
          </mxGeometry>
        </mxCell>
        <mxCell id="LbgYifDKzVZNk5WE-PiP-101" value="" style="endArrow=classic;html=1;rounded=0;edgeStyle=orthogonalEdgeStyle;strokeWidth=1;exitX=0.94;exitY=0.51;exitDx=0;exitDy=0;exitPerimeter=0;" edge="1" parent="1" source="LbgYifDKzVZNk5WE-PiP-52">
          <mxGeometry width="50" height="50" relative="1" as="geometry">
            <mxPoint x="261" y="155" as="sourcePoint" />
            <mxPoint x="324" y="370" as="targetPoint" />
          </mxGeometry>
        </mxCell>
        <mxCell id="LbgYifDKzVZNk5WE-PiP-102" value="" style="endArrow=classic;html=1;rounded=0;edgeStyle=orthogonalEdgeStyle;strokeWidth=1;exitX=0.083;exitY=0.49;exitDx=0;exitDy=0;exitPerimeter=0;" edge="1" parent="1" source="LbgYifDKzVZNk5WE-PiP-52">
          <mxGeometry width="50" height="50" relative="1" as="geometry">
            <mxPoint x="259" y="345" as="sourcePoint" />
            <mxPoint x="156" y="370" as="targetPoint" />
          </mxGeometry>
        </mxCell>
        <mxCell id="LbgYifDKzVZNk5WE-PiP-52" value="" style="image;sketch=0;aspect=fixed;html=1;points=[];align=center;fontSize=12;image=img/lib/mscae/Load_Balancer_feature.svg;" vertex="1" parent="1">
          <mxGeometry x="220.5" y="320" width="30" height="30" as="geometry" />
        </mxCell>
        <mxCell id="LbgYifDKzVZNk5WE-PiP-51" value="" style="image;sketch=0;aspect=fixed;html=1;points=[];align=center;fontSize=12;image=img/lib/mscae/Load_Balancer_feature.svg;" vertex="1" parent="1">
          <mxGeometry x="220.5" y="130" width="30" height="30" as="geometry" />
        </mxCell>
        <mxCell id="LbgYifDKzVZNk5WE-PiP-104" value="" style="endArrow=none;html=1;rounded=0;exitX=0.571;exitY=1.014;exitDx=0;exitDy=0;exitPerimeter=0;" edge="1" parent="1" source="LbgYifDKzVZNk5WE-PiP-24" target="LbgYifDKzVZNk5WE-PiP-53">
          <mxGeometry width="50" height="50" relative="1" as="geometry">
            <mxPoint x="550" y="410" as="sourcePoint" />
            <mxPoint x="600" y="360" as="targetPoint" />
          </mxGeometry>
        </mxCell>
        <mxCell id="LbgYifDKzVZNk5WE-PiP-105" value="" style="endArrow=classic;html=1;rounded=0;edgeStyle=orthogonalEdgeStyle;strokeWidth=1;" edge="1" parent="1" source="LbgYifDKzVZNk5WE-PiP-53">
          <mxGeometry width="50" height="50" relative="1" as="geometry">
            <mxPoint x="260" y="547.5" as="sourcePoint" />
            <mxPoint x="329" y="580" as="targetPoint" />
          </mxGeometry>
        </mxCell>
        <mxCell id="LbgYifDKzVZNk5WE-PiP-106" value="" style="endArrow=classic;html=1;rounded=0;edgeStyle=orthogonalEdgeStyle;strokeWidth=1;exitX=-0.012;exitY=0.5;exitDx=0;exitDy=0;exitPerimeter=0;" edge="1" parent="1" source="LbgYifDKzVZNk5WE-PiP-53">
          <mxGeometry width="50" height="50" relative="1" as="geometry">
            <mxPoint x="261" y="555" as="sourcePoint" />
            <mxPoint x="155" y="580" as="targetPoint" />
          </mxGeometry>
        </mxCell>
        <mxCell id="LbgYifDKzVZNk5WE-PiP-107" value="" style="endArrow=none;html=1;rounded=0;exitX=0.994;exitY=0.436;exitDx=0;exitDy=0;exitPerimeter=0;edgeStyle=orthogonalEdgeStyle;entryX=1;entryY=0.5;entryDx=0;entryDy=0;" edge="1" parent="1" source="LbgYifDKzVZNk5WE-PiP-7" target="LbgYifDKzVZNk5WE-PiP-25">
          <mxGeometry width="50" height="50" relative="1" as="geometry">
            <mxPoint x="550" y="420" as="sourcePoint" />
            <mxPoint x="430" y="660" as="targetPoint" />
            <Array as="points">
              <mxPoint x="430" y="222" />
              <mxPoint x="430" y="640" />
            </Array>
          </mxGeometry>
        </mxCell>
        <mxCell id="LbgYifDKzVZNk5WE-PiP-93" value="Disks" style="text;html=1;strokeColor=none;fillColor=default;align=center;verticalAlign=middle;whiteSpace=wrap;rounded=0;" vertex="1" parent="1">
          <mxGeometry x="400" y="430" width="60" height="30" as="geometry" />
        </mxCell>
        <mxCell id="LbgYifDKzVZNk5WE-PiP-84" value="" style="image;aspect=fixed;html=1;points=[];align=center;fontSize=12;image=img/lib/azure2/compute/Disks.svg;" vertex="1" parent="1">
          <mxGeometry x="410" y="400" width="40.71" height="40" as="geometry" />
        </mxCell>
      </root>
    </mxGraphModel>
  </diagram>
</mxfile>
